<svg role="img" viewBox="0 0 24 24" xmlns="http://www.w3.org/2000/svg"><title>GitLab</title><path d="m 23.6004 9.5927 -.0337 -.0862 L 20.3 .9814 a .851 .851 0 0 0 -.3362 -.405 .8748 .8748 0 0 0 -.9997 .0539 .8748 .8748 0 0 0 -.29 .4399 l -2.2055 6.748 H 7.5375 l -2.2057 -6.748 a .8573 .8573 0 0 0 -.29 -.4412 .8748 .8748 0 0 0 -.9997 -.0537 .8585 .8585 0 0 0 -.3362 .4049 L .4332 9.5015 l -.0325 .0862 a 6.0657 6.0657 0 0 0 2.0119 7.0105 l .0113 .0087 .03 .0213 4.976 3.7264 2.462 1.8633 1.4995 1.1321 a 1.0085 1.0085 0 0 0 1.2197 0 l 1.4995 -1.1321 2.4619 -1.8633 5.006 -3.7489 .0125 -.01 a 6.0682 6.0682 0 0 0 2.0094 -7.003 z"/></svg>